HIERARCHY
ROOT Hips
{
	OFFSET 0.00000 0.00000 0.00000
	CHANNELS 6 Xposition Yposition Zposition Zrotation Yrotation Xrotation 
	JOINT LHipJoint
	{
		OFFSET 0 0 0
		CHANNELS 3 Zrotation Yrotation Xrotation
		JOINT LeftHip
		{
			OFFSET 1.44361 -1.63093 0.70831
			CHANNELS 3 Zrotation Yrotation Xrotation
			JOINT LeftKnee
			{
				OFFSET 2.20103 -6.04728 0.00000
				CHANNELS 3 Zrotation Yrotation Xrotation
				JOINT LeftAnkle
				{
					OFFSET 2.54154 -6.98283 0.00000
					CHANNELS 3 Zrotation Yrotation Xrotation
					JOINT LeftToe
					{
						OFFSET 0.05971 -0.16406 1.77582
						CHANNELS 3 Zrotation Yrotation Xrotation
						End Site
						{
							OFFSET 0.00000 -0.00000 0.90832
						}
					}
				}
			}
		}
	}
	JOINT RHipJoint
	{
		OFFSET 0 0 0
		CHANNELS 3 Zrotation Yrotation Xrotation
		JOINT RightHip
		{
			OFFSET -1.65838 -1.63093 0.70830
			CHANNELS 3 Zrotation Yrotation Xrotation
			JOINT RightKnee
			{
				OFFSET -2.26926 -6.23475 0.00000
				CHANNELS 3 Zrotation Yrotation Xrotation
				JOINT RightAnkle
				{
					OFFSET -2.34808 -6.45129 0.00000
					CHANNELS 3 Zrotation Yrotation Xrotation
					JOINT RightToe
					{
						OFFSET -0.18633 -0.51195 1.68539
						CHANNELS 3 Zrotation Yrotation Xrotation
						End Site
						{
							OFFSET -0.00000 -0.00000 0.88927
						}
					}
				}
			}
		}
	}
	JOINT lowerback
	{
		OFFSET 0 0 0
		CHANNELS 3 Zrotation Yrotation Xrotation
		JOINT Chest
		{
			OFFSET -0.10393 2.01691 0.06920
			CHANNELS 3 Zrotation Yrotation Xrotation
			JOINT Chest2
			{
				OFFSET 0.04092 2.01302 -0.05283
				CHANNELS 3 Zrotation Yrotation Xrotation
				JOINT lowerneck
				{
					OFFSET 0 0 0
					CHANNELS 3 Zrotation Yrotation Xrotation
					JOINT Neck
					{
						OFFSET -0.02870 1.58978 -0.03113
						CHANNELS 3 Zrotation Yrotation Xrotation
						JOINT Head
						{
							OFFSET 0.11532 1.54326 -0.29195
							CHANNELS 3 Zrotation Yrotation Xrotation
							End Site
							{
								OFFSET 0.04056 1.59999 -0.09535
							}
						}
					}
				}
				JOINT LeftCollar
				{
					OFFSET 0 0 0
					CHANNELS 3 Zrotation Yrotation Xrotation
					JOINT LeftShoulder
					{
						OFFSET 3.30641 1.15764 0.01104
CHANNELS 3 Zrotation Xrotation Yrotation
						JOINT LeftElbow
						{
OFFSET 0 -4.632080 0.000000
CHANNELS 3 Zrotation Xrotation Yrotation
							JOINT LeftWrist
							{
OFFSET 0 -3.419240 -0.000000
CHANNELS 3 Zrotation Xrotation Yrotation
								JOINT lhand
								{
									OFFSET 0 0 0
CHANNELS 3 Zrotation Xrotation Yrotation
									JOINT LFingers
									{
OFFSET 0 -0.625370 -0.000000
CHANNELS 3 Zrotation Xrotation Yrotation
										End Site
										{
OFFSET 0 -0.504190 -0.000000
										}
									}
								}
								JOINT LThumb
								{
OFFSET 0 0.000000 0.000000
CHANNELS 3 Zrotation Xrotation Yrotation
									End Site
									{
OFFSET 0 -0.511890 0.511890
									}
								}
							}
						}
					}
				}
				JOINT RightCollar
				{
					OFFSET 0 0 0
					CHANNELS 3 Zrotation Yrotation Xrotation
					JOINT RightShoulder
					{
						OFFSET -3.78081 1.02180 -0.16609
CHANNELS 3 Zrotation Xrotation Yrotation
						JOINT RightElbow
						{
OFFSET 0 -4.406400 -0.000000
CHANNELS 3 Zrotation Xrotation Yrotation
							JOINT RightWrist
							{
OFFSET 0 -3.446750 0.000000
CHANNELS 3 Zrotation Xrotation Yrotation
								JOINT rhand
								{
									OFFSET 0 0 0
CHANNELS 3 Zrotation Xrotation Yrotation
									JOINT RFingers
									{
OFFSET 0 -0.513670 -0.000000
CHANNELS 3 Zrotation Xrotation Yrotation
										End Site
										{
OFFSET 0 -0.414140 -0.000000
										}
									}
								}
								JOINT RThumb
								{
OFFSET 0 0.000000 0.000000
CHANNELS 3 Zrotation Xrotation Yrotation
									End Site
									{
OFFSET 0 -0.420460 0.420460
									}
								}
							}
						}
					}
				}
			}
		}
	}
}
MOTION
Frames: 9
Frame Time: 0.008333333333333333
11.483000 16.451200 3.953200 78.683600 -86.410100 -67.905900 0.000000 0.000000 0.000000 -14.079100 -12.120100 -1.325600 0.141800 2.426500 6.685800 -0.187600 14.832400 -18.908200 13.498800 -18.954900 -70.667800 0.000000 0.000000 0.000000 7.558700 9.177600 -2.958600 -0.157100 -2.554000 7.039300 -0.782300 -2.728400 -17.910500 -2.936100 10.590900 -30.912100 -8.511200 0.241900 -8.471700 -0.029000 1.067100 -1.091600 4.879300 0.402100 3.460300 -16.912100 3.457600 -8.789000 23.854200 3.824100 12.566400 10.956500 2.508700 4.210600 -0.000000 -0.000000 0.000000 5.291200 11.469800 -50.007300 113.783900 -57.750800 80.441900 60.250400 -26.226700 17.993300 0.000000 0.000000 0.000000 -7.125000 0.000000 0.000000 19.406000 -1.618900 21.187000 -0.000000 -0.000000 0.000000 8.692600 14.657200 12.069300 -114.722000 -57.559800 -81.234400 -19.255300 4.965100 37.601600 0.000000 0.000000 0.000000 7.125000 0.000000 -0.000000 21.227700 68.071700 -11.971900
11.484325 16.451949 3.954697 78.949406 -86.338451 -68.167501 0.000000 0.000000 0.000000 -14.182888 -12.139683 -1.314945 0.141224 2.421950 6.673244 -0.203669 14.891609 -18.801878 13.515676 -18.960487 -70.719752 0.000000 0.000000 0.000000 7.452723 9.124554 -2.998514 -0.157734 -2.559126 7.053526 -0.784546 -2.665620 -17.901400 -2.956604 10.624478 -31.023548 -8.594714 0.232224 -8.477056 -0.047891 1.062089 -1.100355 4.905852 0.398875 3.453561 -16.787865 3.454778 -8.760375 23.731751 3.815864 12.547163 10.884966 2.502076 4.208930 0.000000 0.000000 0.000000 4.868964 10.930068 -49.715576 111.736708 -58.122294 78.704229 60.509870 -26.981495 18.492484 0.000000 0.000000 0.000000 -7.125000 0.000000 0.000000 19.401968 -2.550746 21.493065 0.000000 0.000000 0.000000 8.724105 14.671541 12.081280 -114.825961 -57.538029 -81.322176 -20.863323 3.954118 31.760560 0.000000 0.000000 0.000000 7.125000 0.000000 0.000000 14.443180 62.852063 -6.950048
11.485513 16.452576 3.956073 79.204440 -86.280474 -68.419060 0.000000 0.000000 0.000000 -14.268704 -12.158187 -1.307981 0.140937 2.419785 6.667281 -0.209028 14.897645 -18.744732 13.518453 -18.961394 -70.728284 0.000000 0.000000 0.000000 7.366739 9.088052 -3.029176 -0.158261 -2.563401 7.065398 -0.786215 -2.617850 -17.894138 -2.970667 10.647498 -31.099964 -8.668460 0.225465 -8.484190 -0.059734 1.060132 -1.108319 4.934728 0.397229 3.448251 -16.681056 3.446988 -8.760630 23.631239 3.799409 12.559161 10.827697 2.493539 4.222148 0.000000 0.000000 0.000000 4.483386 10.349530 -49.487036 109.589401 -58.488836 76.877882 60.801076 -27.731126 18.944072 0.000000 0.000000 0.000000 -7.125000 0.000000 0.000000 19.428229 -3.434615 21.819791 0.000000 0.000000 0.000000 8.745918 14.680611 12.087988 -114.908820 -57.520663 -81.392132 -22.026493 3.177076 27.445038 0.000000 0.000000 0.000000 7.125000 0.000000 0.000000 9.462967 58.989025 -3.253317
11.486319 16.452864 3.957110 79.429410 -86.260661 -68.642590 0.000000 0.000000 0.000000 -14.304356 -12.173680 -1.311322 0.141455 2.424277 6.679722 -0.184492 14.755268 -18.824848 13.481880 -18.949242 -70.615627 0.000000 0.000000 0.000000 7.336559 9.097728 -3.034014 -0.158491 -2.565302 7.070696 -0.786273 -2.611976 -17.892007 -2.966750 10.641048 -31.078596 -8.714940 0.226847 -8.496285 -0.051901 1.066698 -1.114079 4.970092 0.399994 3.446926 -16.622884 3.425332 -8.841494 23.591959 3.760013 12.658341 10.810245 2.479658 4.276921 0.000000 0.000000 0.000000 4.200129 9.655095 -49.434854 107.162651 -58.841554 74.804023 61.180864 -28.466339 19.262809 0.000000 0.000000 0.000000 -7.125000 0.000000 0.000000 19.539044 -4.184572 22.204187 0.000000 0.000000 0.000000 8.740676 14.674967 12.079982 -114.932780 -57.515595 -81.412349 -21.947990 3.053015 27.387558 0.000000 0.000000 0.000000 7.125000 0.000000 0.000000 9.518950 58.912538 -3.255275
11.487125 16.453152 3.958056 79.637061 -86.258653 -68.860256 0.000000 0.000000 0.000000 -14.321018 -12.191118 -1.293181 0.141670 2.426035 6.684567 -0.163390 14.658102 -18.933100 13.447312 -18.937727 -70.509167 0.000000 0.000000 0.000000 7.327587 9.092851 -3.031378 -0.158661 -2.566656 7.074476 -0.785844 -2.592124 -17.877297 -2.955238 10.622170 -31.016027 -8.737629 0.226042 -8.497260 -0.035165 1.067217 -1.115645 5.000625 0.400054 3.444993 -16.601811 3.400789 -8.971703 23.575041 3.717245 12.815980 10.813364 2.466750 4.356640 0.000000 0.000000 0.000000 3.078335 9.380324 -48.465957 106.208187 -58.983346 73.988760 60.724515 -27.659382 19.520352 0.000000 0.000000 0.000000 -7.125000 0.000000 0.000000 19.220867 -4.250465 21.826279 0.000000 0.000000 0.000000 8.714288 14.662456 12.083371 -114.925657 -57.517089 -81.406343 -21.828256 3.010929 27.502901 0.000000 0.000000 0.000000 7.125000 0.000000 0.000000 9.712633 59.001582 -3.344314
11.487932 16.453440 3.958920 79.829201 -86.272591 -69.072670 0.000000 0.000000 0.000000 -14.320672 -12.210297 -1.255801 0.141612 2.425344 6.682609 -0.145362 14.601428 -19.066550 13.414539 -18.926784 -70.408259 0.000000 0.000000 0.000000 7.337609 9.074938 -3.022047 -0.158776 -2.567520 7.076895 -0.784980 -2.559755 -17.851321 -2.936922 10.592162 -30.916559 -8.739012 0.223277 -8.488275 -0.010457 1.062322 -1.113457 5.026831 0.397693 3.442517 -16.613964 3.373661 -9.146103 23.578151 3.671456 13.025975 10.834905 2.454712 4.458701 0.000000 0.000000 0.000000 1.205543 9.481405 -46.676047 106.572309 -58.936232 74.300699 59.519319 -25.471253 19.723089 0.000000 0.000000 0.000000 -7.125000 0.000000 0.000000 18.518484 -3.703706 20.765649 0.000000 0.000000 0.000000 8.668960 14.643794 12.096963 -114.890696 -57.524461 -81.376854 -21.671594 3.042261 27.773026 0.000000 0.000000 0.000000 7.125000 0.000000 0.000000 10.029642 59.238877 -3.511342
11.489467 16.453135 3.959875 80.040574 -86.278599 -69.298711 0.000000 0.000000 0.000000 -14.331265 -12.270267 -1.211357 0.142056 2.429165 6.693321 -0.089689 14.317192 -19.307559 13.327623 -18.897063 -70.139905 0.000000 0.000000 0.000000 7.329491 9.044675 -3.036872 -0.159347 -2.571984 7.089341 -0.782977 -2.541105 -17.820651 -2.954065 10.620173 -31.009558 -8.736338 0.208025 -8.494513 0.015255 1.042705 -1.099829 5.050667 0.386763 3.462919 -16.621103 3.349314 -9.306831 23.500546 3.646814 13.191761 10.822902 2.448280 4.543761 0.000000 0.000000 0.000000 0.700669 9.461710 -46.153649 106.593791 -58.933555 74.319130 59.321944 -25.096409 19.825469 0.000000 0.000000 0.000000 -7.125000 0.000000 0.000000 18.383841 -3.713111 20.596940 0.000000 0.000000 0.000000 8.614425 14.608726 12.173451 -114.856510 -57.531651 -81.348003 -22.027891 3.423981 28.175595 0.000000 0.000000 0.000000 7.125000 0.000000 0.000000 9.856617 59.730897 -3.562425
11.491195 16.452671 3.960854 80.251834 -86.283122 -69.522469 0.000000 0.000000 0.000000 -14.343404 -12.341677 -1.166030 0.142663 2.434439 6.708084 -0.020068 13.945076 -19.585331 13.219116 -18.859672 -69.804605 0.000000 0.000000 0.000000 7.317766 9.013736 -3.058140 -0.160060 -2.577592 7.104964 -0.780765 -2.527867 -17.790624 -2.980667 10.663638 -31.153844 -8.732879 0.190713 -8.506696 0.040923 1.021106 -1.082638 5.073961 0.374430 3.490726 -16.621471 3.324875 -9.457495 23.396284 3.626913 13.337181 10.798258 2.442461 4.621128 0.000000 0.000000 0.000000 0.562375 9.406678 -45.973432 106.521135 -58.943086 74.256920 59.397914 -25.204951 19.897815 0.000000 0.000000 0.000000 -7.125000 0.000000 0.000000 18.403993 -3.869190 20.669811 0.000000 0.000000 0.000000 8.561228 14.568284 12.262818 -114.824181 -57.538444 -81.320713 -22.530019 3.897740 28.598119 0.000000 0.000000 0.000000 7.125000 0.000000 0.000000 9.533565 60.277761 -3.571352
11.492923 16.452153 3.961833 80.374110 -86.298039 -69.645379 0.000000 0.000000 0.000000 -14.332576 -12.424788 -1.137520 0.143815 2.444231 6.735039 0.118508 13.094844 -20.007164 12.985161 -18.775640 -69.078377 0.000000 0.000000 0.000000 7.326233 9.027098 -3.080660 -0.161155 -2.586519 7.129730 -0.780132 -2.545434 -17.792870 -3.009119 10.709714 -31.307164 -8.734319 0.194571 -8.552024 0.061312 1.032107 -1.056086 5.098669 0.376791 3.542044 -16.528338 3.286285 -9.497351 23.199881 3.592643 13.333207 10.708524 2.421784 4.643417 0.000000 0.000000 0.000000 0.523785 9.291889 -45.928623 106.383768 -58.960999 74.139251 59.603359 -25.401987 19.908989 0.000000 0.000000 0.000000 -7.125000 0.000000 0.000000 18.511007 -4.025160 20.851584 0.000000 0.000000 0.000000 8.572632 14.509881 12.288563 -114.820207 -57.539251 -81.317315 -23.213108 4.365132 28.763708 0.000000 0.000000 0.000000 7.125000 0.000000 0.000000 8.853817 60.612969 -3.381630
